<svg width="397" height="72" viewBox="0 0 397 72" fill="none" xmlns="http://www.w3.org/2000/svg">
<g clip-path="url(#clip0_109_1854)">
<path d="M7.41355 47.4177L14.0579 36.0688L7.34361 24.7198L0.699219 36.0688L7.41355 47.4177Z" stroke="#265083" stroke-width="0.654352" stroke-miterlimit="10" stroke-linejoin="round"/>
<path d="M14.0581 36.0687L67.3531 36.0687L60.7087 24.7198L7.34375 24.7198L14.0581 36.0687Z" stroke="#265083" stroke-width="0.654352" stroke-miterlimit="10" stroke-linejoin="round"/>
<path d="M67.3525 36.0687L60.7081 47.4176L7.41309 47.4176L14.0575 36.0687L67.3525 36.0687Z" stroke="#265083" stroke-width="0.654352" stroke-miterlimit="10" stroke-linejoin="round"/>
</g>
<g clip-path="url(#clip1_109_1854)">
<path d="M75.3918 40.1408L84.7471 30.8983L81.1989 18.1983L71.8436 27.4408L75.3918 40.1408Z" stroke="#265083" stroke-width="0.654352" stroke-miterlimit="10" stroke-linejoin="round"/>
<path d="M84.7473 30.8983L136.226 44.6921L132.746 32.0102L81.199 18.1983L84.7473 30.8983Z" stroke="#265083" stroke-width="0.654352" stroke-miterlimit="10" stroke-linejoin="round"/>
<path d="M136.226 44.6921L126.871 53.9346L75.3916 40.1408L84.7469 30.8983L136.226 44.6921Z" stroke="#265083" stroke-width="0.654352" stroke-miterlimit="10" stroke-linejoin="round"/>
</g>
<g clip-path="url(#clip2_109_1854)">
<path d="M146.817 32.5817L158.245 26.0755L158.105 12.8899L146.676 19.3961L146.817 32.5817Z" stroke="#265083" stroke-width="0.654352" stroke-miterlimit="10" stroke-linejoin="round"/>
<path d="M158.245 26.0755L204.4 52.723L204.321 39.5724L158.105 12.8899L158.245 26.0755Z" stroke="#265083" stroke-width="0.654352" stroke-miterlimit="10" stroke-linejoin="round"/>
<path d="M204.4 52.723L192.971 59.2292L146.816 32.5817L158.245 26.0755L204.4 52.723Z" stroke="#265083" stroke-width="0.654352" stroke-miterlimit="10" stroke-linejoin="round"/>
</g>
<g clip-path="url(#clip3_109_1854)">
<path d="M216.822 25.2556L229.545 21.929L232.822 9.15639L220.099 12.483L216.822 25.2556Z" stroke="#265083" stroke-width="0.654352" stroke-miterlimit="10" stroke-linejoin="round"/>
<path d="M229.546 21.929L267.231 59.6143L270.557 46.8911L232.823 9.15638L229.546 21.929Z" stroke="#265083" stroke-width="0.654352" stroke-miterlimit="10" stroke-linejoin="round"/>
<path d="M267.231 59.6143L254.508 62.9409L216.822 25.2556L229.545 21.929L267.231 59.6143Z" stroke="#265083" stroke-width="0.654352" stroke-miterlimit="10" stroke-linejoin="round"/>
</g>
<g clip-path="url(#clip4_109_1854)">
<path d="M280.636 18.6617L293.787 18.7415L300.258 7.25223L287.108 7.17248L280.636 18.6617Z" stroke="#265083" stroke-width="0.654352" stroke-miterlimit="10" stroke-linejoin="round"/>
<path d="M293.787 18.7415L320.434 64.8963L326.941 53.4676L300.258 7.25223L293.787 18.7415Z" stroke="#265083" stroke-width="0.654352" stroke-miterlimit="10" stroke-linejoin="round"/>
<path d="M320.435 64.8963L307.284 64.8166L280.637 18.6617L293.787 18.7415L320.435 64.8963Z" stroke="#265083" stroke-width="0.654352" stroke-miterlimit="10" stroke-linejoin="round"/>
</g>
<g clip-path="url(#clip5_109_1854)">
<path d="M333.911 13.2494L346.593 16.7301L355.817 7.30719L343.135 3.82652L333.911 13.2494Z" stroke="#265083" stroke-width="0.654352" stroke-miterlimit="10" stroke-linejoin="round"/>
<path d="M346.592 16.7301L360.386 68.2091L369.629 58.8538L355.817 7.30719L346.592 16.7301Z" stroke="#265083" stroke-width="0.654352" stroke-miterlimit="10" stroke-linejoin="round"/>
<path d="M360.387 68.2091L347.705 64.7284L333.911 13.2494L346.593 16.7301L360.387 68.2091Z" stroke="#265083" stroke-width="0.654352" stroke-miterlimit="10" stroke-linejoin="round"/>
</g>
<g clip-path="url(#clip6_109_1854)">
<path d="M373.014 9.38746L384.363 16.0319L395.711 9.31752L384.363 2.67313L373.014 9.38746Z" stroke="#265083" stroke-width="0.654352" stroke-miterlimit="10" stroke-linejoin="round"/>
<path d="M384.362 16.0319V69.3269L395.711 62.6825V9.31752L384.362 16.0319Z" stroke="#265083" stroke-width="0.654352" stroke-miterlimit="10" stroke-linejoin="round"/>
<path d="M384.363 69.3269L373.014 62.6825V9.38747L384.363 16.0319V69.3269Z" stroke="#265083" stroke-width="0.654352" stroke-miterlimit="10" stroke-linejoin="round"/>
</g>
<defs>
<clipPath id="clip0_109_1854">
<rect width="24.211" height="68.0526" fill="white" transform="matrix(0 -1 1 0 0 48.1055)"/>
</clipPath>
<clipPath id="clip1_109_1854">
<rect width="24.211" height="68.0526" fill="white" transform="translate(68.0527 38.8864) rotate(-75)"/>
</clipPath>
<clipPath id="clip2_109_1854">
<rect width="24.211" height="68.0526" fill="white" transform="translate(140.053 29.4705) rotate(-60)"/>
</clipPath>
<clipPath id="clip3_109_1854">
<rect width="24.211" height="68.0526" fill="white" transform="translate(211.094 20.4997) rotate(-45)"/>
</clipPath>
<clipPath id="clip4_109_1854">
<rect width="24.211" height="68.0526" fill="white" transform="translate(276.334 12.5851) rotate(-30)"/>
</clipPath>
<clipPath id="clip5_109_1854">
<rect width="24.211" height="68.0526" fill="white" transform="translate(331.327 6.26627) rotate(-15)"/>
</clipPath>
<clipPath id="clip6_109_1854">
<rect width="24.211" height="68.0526" fill="white" transform="translate(372.326 1.97372)"/>
</clipPath>
</defs>
</svg>
