<svg width="42" height="42" viewBox="0 0 42 42" fill="none" xmlns="http://www.w3.org/2000/svg">
<g id="Frame 427319603">
<g clip-path="url(#clip0_107_10632)">
<g id="Group">
<path id="Vector" d="M0 0V42H42V0H0ZM25.6856 31.7362L22.5094 33.9412L15.6187 31.7362L15.6975 31.0537L16.3669 25.3575L15.9863 28.6519L23.1787 26.3812L24.9637 25.8169L25.5281 30.6075L25.6856 31.7362Z" fill="#FCE6E9"/>
<path id="Vector_2" d="M39.4147 42H25.6859H2.58594L15.6978 31.0537L15.6191 31.7362L22.5097 33.9412L25.6859 31.7362L25.5547 30.6075L39.4147 42Z" fill="#62538C"/>
<path id="Vector_3" d="M25.686 31.7363L22.5098 33.9413L15.6191 31.7363L15.6979 31.0538L16.3673 25.3575L15.9998 28.6519L23.1923 26.3813L24.9904 25.8169L25.5548 30.6075L25.686 31.7363Z" fill="#D99970"/>
<path id="Vector_4" d="M15.999 28.6519L16.3665 25.3575L16.4846 24.3731H24.819L24.9896 25.8169L23.1915 26.3813L15.999 28.6519Z" fill="#D99970"/>
<path id="Vector_5" d="M24.5963 24.8325L23.1919 26.3812L15.9863 28.6519L16.3669 25.3575L16.4851 24.3731L24.5963 24.8325Z" fill="#9A460F"/>
<path id="Vector_6" d="M27.8516 11.4188V24.9113L24.9903 25.8169L23.2053 26.3813L16.3803 25.3575L13.4141 24.9113V11.4188C13.4141 7.42876 16.6428 4.20001 20.6328 4.20001C22.6278 4.20001 24.4391 5.01376 25.7384 6.31314C27.0378 7.62564 27.8516 9.42376 27.8516 11.4188Z" fill="#D99970"/>
<path id="Vector_7" d="M22.4831 12.9544L23.1919 18.8606L21.6562 19.1494L22.4831 12.9544Z" fill="#9A460F"/>
<path id="Vector_8" d="M21.3936 21.4856C21.3936 21.4856 22.3779 21.6825 22.6404 21.6825C22.9029 21.6825 23.4673 21.4856 23.4673 21.4856" stroke="#9A460F" stroke-width="0.189" stroke-miterlimit="10" stroke-linecap="square"/>
<path id="Vector_9" d="M18.3359 12.9544H26.9591L26.1716 13.5581L18.3359 12.9544Z" fill="#CD7842"/>
<path id="Vector_10" d="M20.291 10.6313H24.9898" stroke="#CD7842" stroke-width="0.04725" stroke-miterlimit="10"/>
<path id="Vector_11" d="M29.7807 8.68876V10.8544C29.7807 11.5106 29.2426 12.0488 28.5863 12.0488H12.587C11.9307 12.0488 11.3926 11.5106 11.3926 10.8544V8.68876C11.3926 8.03251 11.9307 7.49438 12.587 7.49438H28.5863C29.2426 7.49438 29.7807 8.03251 29.7807 8.68876Z" fill="#2E59B7"/>
<path id="Vector_12" d="M27.7593 10.3688V11.0775H13.2168V10.3688C13.2168 9.345 13.4268 8.37375 13.8074 7.49438C14.923 4.90875 17.4956 3.0975 20.4881 3.0975C22.9556 3.0975 25.1343 4.31813 26.4468 6.195C26.7356 6.60188 26.9718 7.035 27.1687 7.48125C27.5493 8.37375 27.7593 9.345 27.7593 10.3688Z" fill="#2E59B7"/>
<path id="Vector_13" d="M27.1689 7.49438H13.8076L26.4339 6.19501L26.447 6.20813C26.7357 6.60188 26.972 7.03501 27.1689 7.49438Z" fill="#254792"/>
<g id="Group_2">
<path id="Vector_14" d="M13.0596 8.29501V11.235" stroke="#587AC5" stroke-width="0.04725" stroke-miterlimit="10"/>
<path id="Vector_15" d="M14.582 8.29501V11.235" stroke="#587AC5" stroke-width="0.04725" stroke-miterlimit="10"/>
<path id="Vector_16" d="M16.1045 8.29501V11.235" stroke="#587AC5" stroke-width="0.04725" stroke-miterlimit="10"/>
<path id="Vector_17" d="M17.6143 8.29501V11.235" stroke="#587AC5" stroke-width="0.04725" stroke-miterlimit="10"/>
<path id="Vector_18" d="M19.1367 8.29501V11.235" stroke="#587AC5" stroke-width="0.04725" stroke-miterlimit="10"/>
<path id="Vector_19" d="M20.6455 8.29501V11.235" stroke="#587AC5" stroke-width="0.04725" stroke-miterlimit="10"/>
<path id="Vector_20" d="M22.168 8.29501V11.235" stroke="#587AC5" stroke-width="0.04725" stroke-miterlimit="10"/>
<path id="Vector_21" d="M23.6777 8.29501V11.235" stroke="#587AC5" stroke-width="0.04725" stroke-miterlimit="10"/>
<path id="Vector_22" d="M25.2002 8.29501V11.235" stroke="#587AC5" stroke-width="0.04725" stroke-miterlimit="10"/>
<path id="Vector_23" d="M26.7227 8.29501V11.235" stroke="#587AC5" stroke-width="0.04725" stroke-miterlimit="10"/>
<path id="Vector_24" d="M28.2324 8.29501V11.235" stroke="#587AC5" stroke-width="0.04725" stroke-miterlimit="10"/>
</g>
<path id="Vector_25" d="M30.7122 39.0338H26.0791V42H30.7122V39.0338Z" fill="#EB4F69"/>
<g id="Group_3">
<path id="Vector_26" d="M11.0646 13.65H10.1984C9.92276 13.65 9.68652 13.4269 9.68652 13.1381V12.495C9.68652 12.2194 9.90964 11.9831 10.1984 11.9831H11.0646V13.65Z" fill="#535385"/>
<path id="Vector_27" d="M18.9393 12.8231L18.585 13.0725V12.5869L18.9393 12.8231Z" fill="#170407"/>
<path id="Vector_28" d="M18.5854 12.5869V13.0725L17.9292 13.5056L17.7061 13.65V11.9962L17.9292 12.1406L18.5854 12.5869Z" fill="#E6BB9F"/>
<path id="Vector_29" d="M17.627 13.1512H11.0645V12.5081H17.627C17.8107 12.5081 17.9551 12.6525 17.9551 12.8362C17.942 13.0069 17.7976 13.1512 17.627 13.1512Z" fill="#170407"/>
<path id="Vector_30" d="M17.9424 12.2456C17.9424 12.3112 17.9161 12.3769 17.8636 12.4294C17.8243 12.4687 17.7586 12.495 17.693 12.5081H11.0518V12.0094H17.693L17.9161 12.1537C17.9424 12.18 17.9424 12.2194 17.9424 12.2456Z" fill="#F07B8E"/>
<path id="Vector_31" d="M17.9424 13.4006C17.9424 13.44 17.9293 13.4662 17.9161 13.5056L17.693 13.65H11.0518V13.1512H17.693C17.8374 13.1512 17.9424 13.2694 17.9424 13.4006Z" fill="#F07B8E"/>
</g>
<path id="Vector_32" d="M13.4007 17.5087C14.5098 17.5087 15.4088 16.357 15.4088 14.9362C15.4088 13.5155 14.5098 12.3637 13.4007 12.3637C12.2916 12.3637 11.3926 13.5155 11.3926 14.9362C11.3926 16.357 12.2916 17.5087 13.4007 17.5087Z" fill="#D99970"/>
<path id="Vector_33" d="M13.3484 14.4244L13.9915 15.7238L13.2959 16.0388" stroke="#9A460F" stroke-width="0.189" stroke-miterlimit="10" stroke-linecap="square"/>
</g>
</g>
</g>
<defs>
<clipPath id="clip0_107_10632">
<rect width="42" height="42" rx="21" fill="white"/>
</clipPath>
</defs>
</svg>
