<svg width="113" height="112" viewBox="0 0 113 112" fill="none" xmlns="http://www.w3.org/2000/svg">
<g id="Frame 427319605">
<g clip-path="url(#clip0_107_4209)">
<g id="Group">
<g id="Group_2">
<path id="Vector" d="M112.5 0H0.5V112H112.5V0Z" fill="#FFC93F"/>
<g id="Group_3">
<path id="Vector_2" d="M40.575 83.685L56.71 79.87L69.87 81.76L71.6551 82.005L86.8801 84.21L105.605 112H7.39502L20.2051 88.515L38.825 84.105L40.575 83.685Z" fill="#EDEAF6"/>
<path id="Vector_3" d="M68.9949 84.63C63.6399 97.895 42.1499 84.63 42.1499 84.63L44.4599 64.995H66.6849L68.9949 84.63Z" fill="#D99970"/>
<path id="Vector_4" d="M66.0899 66.22L62.3448 70.35L43.1299 76.405L44.4599 64.995L66.0899 66.22Z" fill="#9A460F"/>
<path id="Vector_5" d="M74.7699 66.43L62.3449 70.35L36.2349 66.43V16.8H74.7699V66.43Z" fill="#D99970"/>
<path id="Vector_6" d="M60.455 34.545L62.345 50.295L58.25 51.065L60.455 34.545Z" fill="#9A460F"/>
<path id="Vector_7" d="M57.5498 57.295C57.5498 57.295 59.6148 57.295 60.3148 57.295C61.0148 57.295 63.0798 57.295 63.0798 57.295" stroke="#9A460F" stroke-width="0.504" stroke-miterlimit="10" stroke-linecap="square"/>
<path id="Vector_8" d="M43.7249 16.52H36.2349V40.775H43.7249V16.52Z" fill="#CD7842"/>
<path id="Vector_9" d="M74.7699 16.52H36.2349V26.04H74.7699V16.52Z" fill="#C05713"/>
<path id="Vector_10" d="M36.2349 46.69C39.1923 46.69 41.5899 43.6187 41.5899 39.83C41.5899 36.0413 39.1923 32.97 36.2349 32.97C33.2774 32.97 30.8799 36.0413 30.8799 39.83C30.8799 43.6187 33.2774 46.69 36.2349 46.69Z" fill="#D99970"/>
<path id="Vector_11" d="M49.395 36.155H72.39L70.29 37.73L49.395 36.155Z" fill="#CD7842"/>
<path id="Vector_12" d="M36.095 38.465L37.8101 41.93L35.9551 42.77" stroke="#9A460F" stroke-width="0.504" stroke-miterlimit="10" stroke-linecap="square"/>
<g id="Group_4">
<path id="Vector_13" d="M73.335 18.55L76.17 33.53" stroke="#C05713" stroke-width="2" stroke-miterlimit="10" stroke-linecap="square"/>
<path id="Vector_14" d="M74.105 17.99L79.1449 32.34" stroke="#C05713" stroke-width="2" stroke-miterlimit="10" stroke-linecap="square"/>
<path id="Vector_15" d="M72.3198 18.41V33.67" stroke="#C05713" stroke-width="2" stroke-miterlimit="10" stroke-linecap="square"/>
<path id="Vector_16" d="M68.9946 18.41V33.67" stroke="#C05713" stroke-width="2" stroke-miterlimit="10" stroke-linecap="square"/>
<path id="Vector_17" d="M65.6348 18.41V33.67" stroke="#C05713" stroke-width="2" stroke-miterlimit="10" stroke-linecap="square"/>
<path id="Vector_18" d="M62.3101 18.41V33.67" stroke="#C05713" stroke-width="2" stroke-miterlimit="10" stroke-linecap="square"/>
<path id="Vector_19" d="M58.9849 18.41V33.67" stroke="#C05713" stroke-width="2" stroke-miterlimit="10" stroke-linecap="square"/>
<path id="Vector_20" d="M55.625 18.41V33.67" stroke="#C05713" stroke-width="2" stroke-miterlimit="10" stroke-linecap="square"/>
<path id="Vector_21" d="M52.2998 18.41V33.67" stroke="#C05713" stroke-width="2" stroke-miterlimit="10" stroke-linecap="square"/>
<path id="Vector_22" d="M50.3399 18.655L46.6299 33.425" stroke="#C05713" stroke-width="2" stroke-miterlimit="10" stroke-linecap="square"/>
<path id="Vector_23" d="M46.84 18.655L43.165 33.425" stroke="#C05713" stroke-width="2" stroke-miterlimit="10" stroke-linecap="square"/>
<path id="Vector_24" d="M43.4099 18.655L39.7349 33.425" stroke="#C05713" stroke-width="2" stroke-miterlimit="10" stroke-linecap="square"/>
<path id="Vector_25" d="M39.2097 18.935L35.5347 33.705" stroke="#C05713" stroke-width="2" stroke-miterlimit="10" stroke-linecap="square"/>
<path id="Vector_26" d="M36.8649 17.78L33.6099 30.835" stroke="#C05713" stroke-width="2" stroke-miterlimit="10" stroke-linecap="square"/>
</g>
</g>
</g>
<path id="Vector_27" d="M41.0649 101.675L81.3499 95.935C81.3499 95.935 49.4649 115.36 41.0649 101.675Z" fill="#F3F1F9"/>
</g>
</g>
</g>
<defs>
<clipPath id="clip0_107_4209">
<rect x="0.5" width="112" height="112" rx="56" fill="white"/>
</clipPath>
</defs>
</svg>
