<svg width="42" height="42" viewBox="0 0 42 42" fill="none" xmlns="http://www.w3.org/2000/svg">
<g id="Frame 427319608">
<g clip-path="url(#clip0_107_10679)">
<g id="Group">
<path id="Vector" d="M42 0H0V42H42V0Z" fill="#EAE9EF"/>
<path id="Vector_2" d="M5.95898 42L16.0259 35.91H24.6359L35.4377 42H5.95898Z" fill="#E62343"/>
<path id="Vector_3" d="M31.9861 42H9.41113V14.2931C9.41113 8.05874 14.4643 3.00562 20.6986 3.00562C26.933 3.00562 31.9861 8.05874 31.9861 14.2931V42Z" fill="#1C356E"/>
<path id="Vector_4" d="M27.5102 24.8588L20.6458 32.7731L14.3721 25.3838L27.5102 24.8588Z" fill="#122449"/>
<path id="Vector_5" d="M28.7041 11.1038L28.5991 12.3113L27.5097 24.8588L23.1916 28.5731L14.3716 25.3838L13.571 14.5031L13.5579 14.3063L13.2822 10.605L28.1135 11.0775C28.3104 11.0906 28.5072 11.0906 28.7041 11.1038Z" fill="#D99970"/>
<path id="Vector_6" d="M22.4831 15.1594L23.1919 21.0525L21.6562 21.3544L22.4831 15.1594Z" fill="#9A460F"/>
<path id="Vector_7" d="M21.3936 23.6775C21.3936 23.6775 22.1679 24.0712 22.4304 24.0712C22.6929 24.0712 23.4673 23.6775 23.4673 23.6775" stroke="#9A460F" stroke-width="0.525" stroke-miterlimit="10" stroke-linecap="square"/>
<path id="Vector_8" d="M18.3359 15.1594H26.9591L26.1716 15.75L18.3359 15.1594Z" fill="#CD7842"/>
<path id="Vector_9" d="M28.7041 11.1038L28.5991 12.3113C28.5991 12.3113 23.7691 11.4844 13.5841 14.5163C13.5316 14.5294 13.466 14.5556 13.4004 14.5688C13.4004 14.5688 13.4398 14.4769 13.5579 14.3194C14.201 13.4794 17.141 10.8019 28.1267 11.0906C28.3104 11.0906 28.5073 11.0906 28.7041 11.1038Z" fill="#CD7842"/>
<path id="Vector_10" d="M28.7042 11.1038C15.1592 10.6313 13.4005 14.5688 13.4005 14.5688C13.2692 14.2275 13.1511 13.8994 13.0592 13.5844C9.72549 2.70375 28.0217 8.17687 28.0217 8.17687L28.363 9.66L28.7042 11.1038Z" fill="#1C356E"/>
</g>
</g>
</g>
<defs>
<clipPath id="clip0_107_10679">
<rect width="42" height="42" rx="21" fill="white"/>
</clipPath>
</defs>
</svg>
