<svg width="25" height="25" viewBox="0 0 25 25" fill="none" xmlns="http://www.w3.org/2000/svg">
<path d="M3.5 19.9276V4.92764C3.5 4.37536 3.94772 3.92764 4.5 3.92764H13.5C14.0523 3.92764 14.5 4.37536 14.5 4.92764V12.9276H16.5C17.6046 12.9276 18.5 13.823 18.5 14.9276V18.9276C18.5 19.4799 18.9477 19.9276 19.5 19.9276C20.0523 19.9276 20.5 19.4799 20.5 18.9276V11.9276H18.5C17.9477 11.9276 17.5 11.4799 17.5 10.9276V7.34185L15.8431 5.685L17.2574 4.27079L22.2071 9.22053C22.4024 9.4158 22.5 9.67172 22.5 9.92764V18.9276C22.5 20.5845 21.1569 21.9276 19.5 21.9276C17.8431 21.9276 16.5 20.5845 16.5 18.9276V14.9276H14.5V19.9276H15.5V21.9276H2.5V19.9276H3.5ZM5.5 5.92764V11.9276H12.5V5.92764H5.5Z" fill="white"/>
</svg>
