<svg width="1240" height="152" viewBox="0 0 1240 152" fill="none" xmlns="http://www.w3.org/2000/svg">
<g clip-path="url(#clip0_107_4343)">
<path d="M-49.9419 36.0687L3.3531 36.0687L-3.29129 24.7198L-56.6562 24.7198L-49.9419 36.0687Z" stroke="#265083" stroke-width="0.654352" stroke-miterlimit="10" stroke-linejoin="round"/>
<path d="M3.35323 36.0687L-3.29116 47.4177L-56.5862 47.4177L-49.9418 36.0687L3.35323 36.0687Z" stroke="#265083" stroke-width="0.654352" stroke-miterlimit="10" stroke-linejoin="round"/>
</g>
<g clip-path="url(#clip1_107_4343)">
<path d="M11.3916 40.1408L20.7469 30.8983L17.1986 18.1983L7.84332 27.4408L11.3916 40.1408Z" stroke="#265083" stroke-width="0.654352" stroke-miterlimit="10" stroke-linejoin="round"/>
<path d="M20.7468 30.8983L72.2258 44.6921L68.7451 32.0102L17.1985 18.1983L20.7468 30.8983Z" stroke="#265083" stroke-width="0.654352" stroke-miterlimit="10" stroke-linejoin="round"/>
<path d="M72.2259 44.6921L62.8706 53.9346L11.3916 40.1408L20.7469 30.8983L72.2259 44.6921Z" stroke="#265083" stroke-width="0.654352" stroke-miterlimit="10" stroke-linejoin="round"/>
</g>
<g clip-path="url(#clip2_107_4343)">
<path d="M82.817 32.5817L94.2457 26.0755L94.1053 12.8899L82.6767 19.3961L82.817 32.5817Z" stroke="#265083" stroke-width="0.654352" stroke-miterlimit="10" stroke-linejoin="round"/>
<path d="M94.2457 26.0755L140.401 52.723L140.321 39.5724L94.1054 12.8899L94.2457 26.0755Z" stroke="#265083" stroke-width="0.654352" stroke-miterlimit="10" stroke-linejoin="round"/>
<path d="M140.4 52.723L128.972 59.2293L82.8169 32.5817L94.2456 26.0755L140.4 52.723Z" stroke="#265083" stroke-width="0.654352" stroke-miterlimit="10" stroke-linejoin="round"/>
</g>
<g clip-path="url(#clip3_107_4343)">
<path d="M152.822 25.2556L165.545 21.929L168.822 9.15637L156.099 12.483L152.822 25.2556Z" stroke="#265083" stroke-width="0.654352" stroke-miterlimit="10" stroke-linejoin="round"/>
<path d="M165.545 21.929L203.23 59.6143L206.557 46.8911L168.822 9.15635L165.545 21.929Z" stroke="#265083" stroke-width="0.654352" stroke-miterlimit="10" stroke-linejoin="round"/>
<path d="M203.23 59.6143L190.507 62.9409L152.822 25.2556L165.545 21.929L203.23 59.6143Z" stroke="#265083" stroke-width="0.654352" stroke-miterlimit="10" stroke-linejoin="round"/>
</g>
<g clip-path="url(#clip4_107_4343)">
<path d="M216.636 18.6617L229.787 18.7415L236.258 7.25223L223.107 7.17247L216.636 18.6617Z" stroke="#265083" stroke-width="0.654352" stroke-miterlimit="10" stroke-linejoin="round"/>
<path d="M229.787 18.7414L256.434 64.8963L262.94 53.4676L236.258 7.25221L229.787 18.7414Z" stroke="#265083" stroke-width="0.654352" stroke-miterlimit="10" stroke-linejoin="round"/>
<path d="M256.434 64.8963L243.283 64.8165L216.636 18.6617L229.787 18.7415L256.434 64.8963Z" stroke="#265083" stroke-width="0.654352" stroke-miterlimit="10" stroke-linejoin="round"/>
</g>
<g clip-path="url(#clip5_107_4343)">
<path d="M269.91 13.2494L282.592 16.73L291.817 7.30719L279.135 3.82651L269.91 13.2494Z" stroke="#265083" stroke-width="0.654352" stroke-miterlimit="10" stroke-linejoin="round"/>
<path d="M282.592 16.73L296.386 68.2091L305.629 58.8538L291.817 7.30718L282.592 16.73Z" stroke="#265083" stroke-width="0.654352" stroke-miterlimit="10" stroke-linejoin="round"/>
<path d="M296.386 68.2091L283.704 64.7284L269.91 13.2494L282.592 16.73L296.386 68.2091Z" stroke="#265083" stroke-width="0.654352" stroke-miterlimit="10" stroke-linejoin="round"/>
</g>
<g clip-path="url(#clip6_107_4343)">
<path d="M309.014 9.38746L320.363 16.0319L331.712 9.31752L320.363 2.67313L309.014 9.38746Z" stroke="#265083" stroke-width="0.654352" stroke-miterlimit="10" stroke-linejoin="round"/>
<path d="M320.363 16.0319V69.3269L331.712 62.6825V9.31752L320.363 16.0319Z" stroke="#265083" stroke-width="0.654352" stroke-miterlimit="10" stroke-linejoin="round"/>
<path d="M320.363 69.3269L309.014 62.6825V9.38747L320.363 16.0319V69.3269Z" stroke="#265083" stroke-width="0.654352" stroke-miterlimit="10" stroke-linejoin="round"/>
</g>
<g clip-path="url(#clip7_107_4343)">
<path d="M-49.9419 116.069H3.3531L-3.29129 104.72H-56.6562L-49.9419 116.069Z" stroke="#265083" stroke-width="0.654352" stroke-miterlimit="10" stroke-linejoin="round"/>
<path d="M3.35323 116.069L-3.29116 127.418H-56.5862L-49.9418 116.069H3.35323Z" stroke="#265083" stroke-width="0.654352" stroke-miterlimit="10" stroke-linejoin="round"/>
</g>
<g clip-path="url(#clip8_107_4343)">
<path d="M11.3916 120.141L20.7469 110.898L17.1986 98.1983L7.84332 107.441L11.3916 120.141Z" stroke="#265083" stroke-width="0.654352" stroke-miterlimit="10" stroke-linejoin="round"/>
<path d="M20.7468 110.898L72.2258 124.692L68.7451 112.01L17.1985 98.1983L20.7468 110.898Z" stroke="#265083" stroke-width="0.654352" stroke-miterlimit="10" stroke-linejoin="round"/>
<path d="M72.2259 124.692L62.8706 133.935L11.3916 120.141L20.7469 110.898L72.2259 124.692Z" stroke="#265083" stroke-width="0.654352" stroke-miterlimit="10" stroke-linejoin="round"/>
</g>
<g clip-path="url(#clip9_107_4343)">
<path d="M82.817 112.582L94.2457 106.075L94.1053 92.8899L82.6767 99.3961L82.817 112.582Z" stroke="#265083" stroke-width="0.654352" stroke-miterlimit="10" stroke-linejoin="round"/>
<path d="M94.2457 106.075L140.401 132.723L140.321 119.572L94.1054 92.8899L94.2457 106.075Z" stroke="#265083" stroke-width="0.654352" stroke-miterlimit="10" stroke-linejoin="round"/>
<path d="M140.4 132.723L128.972 139.229L82.8169 112.582L94.2456 106.075L140.4 132.723Z" stroke="#265083" stroke-width="0.654352" stroke-miterlimit="10" stroke-linejoin="round"/>
</g>
<g clip-path="url(#clip10_107_4343)">
<path d="M152.822 105.256L165.545 101.929L168.822 89.1564L156.099 92.483L152.822 105.256Z" stroke="#265083" stroke-width="0.654352" stroke-miterlimit="10" stroke-linejoin="round"/>
<path d="M165.545 101.929L203.23 139.614L206.557 126.891L168.822 89.1564L165.545 101.929Z" stroke="#265083" stroke-width="0.654352" stroke-miterlimit="10" stroke-linejoin="round"/>
<path d="M203.23 139.614L190.507 142.941L152.822 105.256L165.545 101.929L203.23 139.614Z" stroke="#265083" stroke-width="0.654352" stroke-miterlimit="10" stroke-linejoin="round"/>
</g>
<g clip-path="url(#clip11_107_4343)">
<path d="M216.636 98.6617L229.787 98.7415L236.258 87.2522L223.107 87.1725L216.636 98.6617Z" stroke="#265083" stroke-width="0.654352" stroke-miterlimit="10" stroke-linejoin="round"/>
<path d="M229.787 98.7415L256.434 144.896L262.94 133.468L236.258 87.2522L229.787 98.7415Z" stroke="#265083" stroke-width="0.654352" stroke-miterlimit="10" stroke-linejoin="round"/>
<path d="M256.434 144.896L243.283 144.817L216.636 98.6617L229.787 98.7415L256.434 144.896Z" stroke="#265083" stroke-width="0.654352" stroke-miterlimit="10" stroke-linejoin="round"/>
</g>
<g clip-path="url(#clip12_107_4343)">
<path d="M269.91 93.2494L282.592 96.73L291.817 87.3072L279.135 83.8265L269.91 93.2494Z" stroke="#265083" stroke-width="0.654352" stroke-miterlimit="10" stroke-linejoin="round"/>
<path d="M282.592 96.73L296.386 148.209L305.629 138.854L291.817 87.3072L282.592 96.73Z" stroke="#265083" stroke-width="0.654352" stroke-miterlimit="10" stroke-linejoin="round"/>
<path d="M296.386 148.209L283.704 144.728L269.91 93.2494L282.592 96.73L296.386 148.209Z" stroke="#265083" stroke-width="0.654352" stroke-miterlimit="10" stroke-linejoin="round"/>
</g>
<g clip-path="url(#clip13_107_4343)">
<path d="M309.014 89.3875L320.363 96.0319L331.712 89.3175L320.363 82.6731L309.014 89.3875Z" stroke="#265083" stroke-width="0.654352" stroke-miterlimit="10" stroke-linejoin="round"/>
<path d="M320.363 96.0319V149.327L331.712 142.682V89.3175L320.363 96.0319Z" stroke="#265083" stroke-width="0.654352" stroke-miterlimit="10" stroke-linejoin="round"/>
<path d="M320.363 149.327L309.014 142.682V89.3875L320.363 96.0319V149.327Z" stroke="#265083" stroke-width="0.654352" stroke-miterlimit="10" stroke-linejoin="round"/>
</g>
<g clip-path="url(#clip14_107_4343)">
<path d="M347.951 47.4177L354.596 36.0688L347.881 24.7198L341.237 36.0688L347.951 47.4177Z" stroke="#265083" stroke-width="0.654352" stroke-miterlimit="10" stroke-linejoin="round"/>
<path d="M354.596 36.0687L407.891 36.0687L401.246 24.7198L347.881 24.7198L354.596 36.0687Z" stroke="#265083" stroke-width="0.654352" stroke-miterlimit="10" stroke-linejoin="round"/>
<path d="M407.891 36.0687L401.246 47.4177L347.951 47.4177L354.596 36.0687L407.891 36.0687Z" stroke="#265083" stroke-width="0.654352" stroke-miterlimit="10" stroke-linejoin="round"/>
</g>
<g clip-path="url(#clip15_107_4343)">
<path d="M415.929 40.1408L425.284 30.8983L421.736 18.1983L412.381 27.4408L415.929 40.1408Z" stroke="#265083" stroke-width="0.654352" stroke-miterlimit="10" stroke-linejoin="round"/>
<path d="M425.284 30.8983L476.763 44.6921L473.283 32.0102L421.736 18.1983L425.284 30.8983Z" stroke="#265083" stroke-width="0.654352" stroke-miterlimit="10" stroke-linejoin="round"/>
<path d="M476.764 44.6921L467.408 53.9346L415.929 40.1408L425.285 30.8983L476.764 44.6921Z" stroke="#265083" stroke-width="0.654352" stroke-miterlimit="10" stroke-linejoin="round"/>
</g>
<g clip-path="url(#clip16_107_4343)">
<path d="M487.355 32.5817L498.783 26.0755L498.643 12.8899L487.214 19.3961L487.355 32.5817Z" stroke="#265083" stroke-width="0.654352" stroke-miterlimit="10" stroke-linejoin="round"/>
<path d="M498.783 26.0755L544.938 52.723L544.858 39.5724L498.643 12.8899L498.783 26.0755Z" stroke="#265083" stroke-width="0.654352" stroke-miterlimit="10" stroke-linejoin="round"/>
<path d="M544.938 52.723L533.509 59.2293L487.354 32.5817L498.783 26.0755L544.938 52.723Z" stroke="#265083" stroke-width="0.654352" stroke-miterlimit="10" stroke-linejoin="round"/>
</g>
<g clip-path="url(#clip17_107_4343)">
<path d="M557.36 25.2556L570.083 21.929L573.36 9.15637L560.637 12.483L557.36 25.2556Z" stroke="#265083" stroke-width="0.654352" stroke-miterlimit="10" stroke-linejoin="round"/>
<path d="M570.083 21.929L607.768 59.6143L611.095 46.8911L573.36 9.15635L570.083 21.929Z" stroke="#265083" stroke-width="0.654352" stroke-miterlimit="10" stroke-linejoin="round"/>
<path d="M607.768 59.6143L595.045 62.9409L557.36 25.2556L570.083 21.929L607.768 59.6143Z" stroke="#265083" stroke-width="0.654352" stroke-miterlimit="10" stroke-linejoin="round"/>
</g>
<g clip-path="url(#clip18_107_4343)">
<path d="M621.174 18.6617L634.324 18.7415L640.795 7.25223L627.645 7.17247L621.174 18.6617Z" stroke="#265083" stroke-width="0.654352" stroke-miterlimit="10" stroke-linejoin="round"/>
<path d="M634.324 18.7414L660.972 64.8963L667.478 53.4676L640.795 7.25221L634.324 18.7414Z" stroke="#265083" stroke-width="0.654352" stroke-miterlimit="10" stroke-linejoin="round"/>
<path d="M660.972 64.8963L647.821 64.8165L621.174 18.6617L634.324 18.7415L660.972 64.8963Z" stroke="#265083" stroke-width="0.654352" stroke-miterlimit="10" stroke-linejoin="round"/>
</g>
<g clip-path="url(#clip19_107_4343)">
<path d="M674.448 13.2494L687.13 16.73L696.354 7.30719L683.672 3.82651L674.448 13.2494Z" stroke="#265083" stroke-width="0.654352" stroke-miterlimit="10" stroke-linejoin="round"/>
<path d="M687.13 16.73L700.924 68.2091L710.166 58.8538L696.354 7.30718L687.13 16.73Z" stroke="#265083" stroke-width="0.654352" stroke-miterlimit="10" stroke-linejoin="round"/>
<path d="M700.924 68.2091L688.242 64.7284L674.448 13.2494L687.13 16.73L700.924 68.2091Z" stroke="#265083" stroke-width="0.654352" stroke-miterlimit="10" stroke-linejoin="round"/>
</g>
<path d="M713.552 9.38746L724.901 16.0319L736.25 9.31752L724.901 2.67313L713.552 9.38746Z" stroke="#265083" stroke-width="0.654352" stroke-miterlimit="10" stroke-linejoin="round"/>
<path d="M724.901 16.0319V69.3269L736.25 62.6825V9.31752L724.901 16.0319Z" stroke="#265083" stroke-width="0.654352" stroke-miterlimit="10" stroke-linejoin="round"/>
<path d="M724.901 69.3269L713.552 62.6825V9.38747L724.901 16.0319V69.3269Z" stroke="#265083" stroke-width="0.654352" stroke-miterlimit="10" stroke-linejoin="round"/>
<g clip-path="url(#clip20_107_4343)">
<path d="M347.951 127.418L354.596 116.069L347.881 104.72L341.237 116.069L347.951 127.418Z" stroke="#265083" stroke-width="0.654352" stroke-miterlimit="10" stroke-linejoin="round"/>
<path d="M354.596 116.069H407.891L401.246 104.72H347.881L354.596 116.069Z" stroke="#265083" stroke-width="0.654352" stroke-miterlimit="10" stroke-linejoin="round"/>
<path d="M407.891 116.069L401.246 127.418H347.951L354.596 116.069H407.891Z" stroke="#265083" stroke-width="0.654352" stroke-miterlimit="10" stroke-linejoin="round"/>
</g>
<g clip-path="url(#clip21_107_4343)">
<path d="M415.929 120.141L425.284 110.898L421.736 98.1983L412.381 107.441L415.929 120.141Z" stroke="#265083" stroke-width="0.654352" stroke-miterlimit="10" stroke-linejoin="round"/>
<path d="M425.284 110.898L476.763 124.692L473.283 112.01L421.736 98.1983L425.284 110.898Z" stroke="#265083" stroke-width="0.654352" stroke-miterlimit="10" stroke-linejoin="round"/>
<path d="M476.764 124.692L467.408 133.935L415.929 120.141L425.285 110.898L476.764 124.692Z" stroke="#265083" stroke-width="0.654352" stroke-miterlimit="10" stroke-linejoin="round"/>
</g>
<g clip-path="url(#clip22_107_4343)">
<path d="M487.355 112.582L498.783 106.075L498.643 92.8899L487.214 99.3961L487.355 112.582Z" stroke="#265083" stroke-width="0.654352" stroke-miterlimit="10" stroke-linejoin="round"/>
<path d="M498.783 106.075L544.938 132.723L544.858 119.572L498.643 92.8899L498.783 106.075Z" stroke="#265083" stroke-width="0.654352" stroke-miterlimit="10" stroke-linejoin="round"/>
<path d="M544.938 132.723L533.509 139.229L487.354 112.582L498.783 106.075L544.938 132.723Z" stroke="#265083" stroke-width="0.654352" stroke-miterlimit="10" stroke-linejoin="round"/>
</g>
<g clip-path="url(#clip23_107_4343)">
<path d="M557.36 105.256L570.083 101.929L573.36 89.1564L560.637 92.483L557.36 105.256Z" stroke="#265083" stroke-width="0.654352" stroke-miterlimit="10" stroke-linejoin="round"/>
<path d="M570.083 101.929L607.768 139.614L611.095 126.891L573.36 89.1564L570.083 101.929Z" stroke="#265083" stroke-width="0.654352" stroke-miterlimit="10" stroke-linejoin="round"/>
<path d="M607.768 139.614L595.045 142.941L557.36 105.256L570.083 101.929L607.768 139.614Z" stroke="#265083" stroke-width="0.654352" stroke-miterlimit="10" stroke-linejoin="round"/>
</g>
<g clip-path="url(#clip24_107_4343)">
<path d="M621.174 98.6617L634.324 98.7415L640.795 87.2522L627.645 87.1725L621.174 98.6617Z" stroke="#265083" stroke-width="0.654352" stroke-miterlimit="10" stroke-linejoin="round"/>
<path d="M634.324 98.7415L660.972 144.896L667.478 133.468L640.795 87.2522L634.324 98.7415Z" stroke="#265083" stroke-width="0.654352" stroke-miterlimit="10" stroke-linejoin="round"/>
<path d="M660.972 144.896L647.821 144.817L621.174 98.6617L634.324 98.7415L660.972 144.896Z" stroke="#265083" stroke-width="0.654352" stroke-miterlimit="10" stroke-linejoin="round"/>
</g>
<g clip-path="url(#clip25_107_4343)">
<path d="M674.448 93.2494L687.13 96.73L696.354 87.3072L683.672 83.8265L674.448 93.2494Z" stroke="#265083" stroke-width="0.654352" stroke-miterlimit="10" stroke-linejoin="round"/>
<path d="M687.13 96.73L700.924 148.209L710.166 138.854L696.354 87.3072L687.13 96.73Z" stroke="#265083" stroke-width="0.654352" stroke-miterlimit="10" stroke-linejoin="round"/>
<path d="M700.924 148.209L688.242 144.728L674.448 93.2494L687.13 96.73L700.924 148.209Z" stroke="#265083" stroke-width="0.654352" stroke-miterlimit="10" stroke-linejoin="round"/>
</g>
<path d="M713.552 89.3875L724.901 96.0319L736.25 89.3175L724.901 82.6731L713.552 89.3875Z" stroke="#265083" stroke-width="0.654352" stroke-miterlimit="10" stroke-linejoin="round"/>
<path d="M724.901 96.0319V149.327L736.25 142.682V89.3175L724.901 96.0319Z" stroke="#265083" stroke-width="0.654352" stroke-miterlimit="10" stroke-linejoin="round"/>
<path d="M724.901 149.327L713.552 142.682V89.3875L724.901 96.0319V149.327Z" stroke="#265083" stroke-width="0.654352" stroke-miterlimit="10" stroke-linejoin="round"/>
<g clip-path="url(#clip26_107_4343)">
<path d="M752.489 47.4177L759.133 36.0688L752.419 24.7198L745.775 36.0688L752.489 47.4177Z" stroke="#265083" stroke-width="0.654352" stroke-miterlimit="10" stroke-linejoin="round"/>
<path d="M759.133 36.0687L812.428 36.0687L805.784 24.7198L752.419 24.7198L759.133 36.0687Z" stroke="#265083" stroke-width="0.654352" stroke-miterlimit="10" stroke-linejoin="round"/>
<path d="M812.428 36.0687L805.784 47.4177L752.489 47.4177L759.133 36.0687L812.428 36.0687Z" stroke="#265083" stroke-width="0.654352" stroke-miterlimit="10" stroke-linejoin="round"/>
</g>
<g clip-path="url(#clip27_107_4343)">
<path d="M820.467 40.1408L829.822 30.8983L826.274 18.1983L816.919 27.4408L820.467 40.1408Z" stroke="#265083" stroke-width="0.654352" stroke-miterlimit="10" stroke-linejoin="round"/>
<path d="M829.822 30.8983L881.301 44.6921L877.82 32.0102L826.274 18.1983L829.822 30.8983Z" stroke="#265083" stroke-width="0.654352" stroke-miterlimit="10" stroke-linejoin="round"/>
<path d="M881.301 44.6921L871.946 53.9346L820.467 40.1408L829.822 30.8983L881.301 44.6921Z" stroke="#265083" stroke-width="0.654352" stroke-miterlimit="10" stroke-linejoin="round"/>
</g>
<g clip-path="url(#clip28_107_4343)">
<path d="M891.892 32.5817L903.321 26.0755L903.181 12.8899L891.752 19.3961L891.892 32.5817Z" stroke="#265083" stroke-width="0.654352" stroke-miterlimit="10" stroke-linejoin="round"/>
<path d="M903.321 26.0755L949.476 52.723L949.396 39.5724L903.181 12.8899L903.321 26.0755Z" stroke="#265083" stroke-width="0.654352" stroke-miterlimit="10" stroke-linejoin="round"/>
<path d="M949.476 52.723L938.047 59.2293L891.892 32.5817L903.321 26.0755L949.476 52.723Z" stroke="#265083" stroke-width="0.654352" stroke-miterlimit="10" stroke-linejoin="round"/>
</g>
<g clip-path="url(#clip29_107_4343)">
<path d="M961.897 25.2556L974.62 21.929L977.897 9.15637L965.174 12.483L961.897 25.2556Z" stroke="#265083" stroke-width="0.654352" stroke-miterlimit="10" stroke-linejoin="round"/>
<path d="M974.62 21.929L1012.31 59.6143L1015.63 46.8911L977.897 9.15635L974.62 21.929Z" stroke="#265083" stroke-width="0.654352" stroke-miterlimit="10" stroke-linejoin="round"/>
<path d="M1012.31 59.6143L999.582 62.9409L961.897 25.2556L974.62 21.929L1012.31 59.6143Z" stroke="#265083" stroke-width="0.654352" stroke-miterlimit="10" stroke-linejoin="round"/>
</g>
<g clip-path="url(#clip30_107_4343)">
<path d="M1025.71 18.6617L1038.86 18.7415L1045.33 7.25223L1032.18 7.17247L1025.71 18.6617Z" stroke="#265083" stroke-width="0.654352" stroke-miterlimit="10" stroke-linejoin="round"/>
<path d="M1038.86 18.7414L1065.51 64.8963L1072.02 53.4676L1045.33 7.25221L1038.86 18.7414Z" stroke="#265083" stroke-width="0.654352" stroke-miterlimit="10" stroke-linejoin="round"/>
<path d="M1065.51 64.8963L1052.36 64.8165L1025.71 18.6617L1038.86 18.7415L1065.51 64.8963Z" stroke="#265083" stroke-width="0.654352" stroke-miterlimit="10" stroke-linejoin="round"/>
</g>
<g clip-path="url(#clip31_107_4343)">
<path d="M1078.99 13.2494L1091.67 16.73L1100.89 7.30719L1088.21 3.82651L1078.99 13.2494Z" stroke="#265083" stroke-width="0.654352" stroke-miterlimit="10" stroke-linejoin="round"/>
<path d="M1091.67 16.73L1105.46 68.2091L1114.7 58.8538L1100.89 7.30718L1091.67 16.73Z" stroke="#265083" stroke-width="0.654352" stroke-miterlimit="10" stroke-linejoin="round"/>
<path d="M1105.46 68.2091L1092.78 64.7284L1078.99 13.2494L1091.67 16.73L1105.46 68.2091Z" stroke="#265083" stroke-width="0.654352" stroke-miterlimit="10" stroke-linejoin="round"/>
</g>
<g clip-path="url(#clip32_107_4343)">
<path d="M1118.09 9.38746L1129.44 16.0319L1140.79 9.31752L1129.44 2.67313L1118.09 9.38746Z" stroke="#265083" stroke-width="0.654352" stroke-miterlimit="10" stroke-linejoin="round"/>
<path d="M1129.44 16.0319V69.3269L1140.79 62.6825V9.31752L1129.44 16.0319Z" stroke="#265083" stroke-width="0.654352" stroke-miterlimit="10" stroke-linejoin="round"/>
<path d="M1129.44 69.3269L1118.09 62.6825V9.38747L1129.44 16.0319V69.3269Z" stroke="#265083" stroke-width="0.654352" stroke-miterlimit="10" stroke-linejoin="round"/>
</g>
<g clip-path="url(#clip33_107_4343)">
<path d="M752.489 127.418L759.133 116.069L752.419 104.72L745.775 116.069L752.489 127.418Z" stroke="#265083" stroke-width="0.654352" stroke-miterlimit="10" stroke-linejoin="round"/>
<path d="M759.133 116.069H812.428L805.784 104.72H752.419L759.133 116.069Z" stroke="#265083" stroke-width="0.654352" stroke-miterlimit="10" stroke-linejoin="round"/>
<path d="M812.428 116.069L805.784 127.418H752.489L759.133 116.069H812.428Z" stroke="#265083" stroke-width="0.654352" stroke-miterlimit="10" stroke-linejoin="round"/>
</g>
<g clip-path="url(#clip34_107_4343)">
<path d="M820.467 120.141L829.822 110.898L826.274 98.1983L816.919 107.441L820.467 120.141Z" stroke="#265083" stroke-width="0.654352" stroke-miterlimit="10" stroke-linejoin="round"/>
<path d="M829.822 110.898L881.301 124.692L877.82 112.01L826.274 98.1983L829.822 110.898Z" stroke="#265083" stroke-width="0.654352" stroke-miterlimit="10" stroke-linejoin="round"/>
<path d="M881.301 124.692L871.946 133.935L820.467 120.141L829.822 110.898L881.301 124.692Z" stroke="#265083" stroke-width="0.654352" stroke-miterlimit="10" stroke-linejoin="round"/>
</g>
<g clip-path="url(#clip35_107_4343)">
<path d="M891.892 112.582L903.321 106.075L903.181 92.8899L891.752 99.3961L891.892 112.582Z" stroke="#265083" stroke-width="0.654352" stroke-miterlimit="10" stroke-linejoin="round"/>
<path d="M903.321 106.075L949.476 132.723L949.396 119.572L903.181 92.8899L903.321 106.075Z" stroke="#265083" stroke-width="0.654352" stroke-miterlimit="10" stroke-linejoin="round"/>
<path d="M949.476 132.723L938.047 139.229L891.892 112.582L903.321 106.075L949.476 132.723Z" stroke="#265083" stroke-width="0.654352" stroke-miterlimit="10" stroke-linejoin="round"/>
</g>
<g clip-path="url(#clip36_107_4343)">
<path d="M961.897 105.256L974.62 101.929L977.897 89.1564L965.174 92.483L961.897 105.256Z" stroke="#265083" stroke-width="0.654352" stroke-miterlimit="10" stroke-linejoin="round"/>
<path d="M974.62 101.929L1012.31 139.614L1015.63 126.891L977.897 89.1564L974.62 101.929Z" stroke="#265083" stroke-width="0.654352" stroke-miterlimit="10" stroke-linejoin="round"/>
<path d="M1012.31 139.614L999.582 142.941L961.897 105.256L974.62 101.929L1012.31 139.614Z" stroke="#265083" stroke-width="0.654352" stroke-miterlimit="10" stroke-linejoin="round"/>
</g>
<g clip-path="url(#clip37_107_4343)">
<path d="M1025.71 98.6617L1038.86 98.7415L1045.33 87.2522L1032.18 87.1725L1025.71 98.6617Z" stroke="#265083" stroke-width="0.654352" stroke-miterlimit="10" stroke-linejoin="round"/>
<path d="M1038.86 98.7415L1065.51 144.896L1072.02 133.468L1045.33 87.2522L1038.86 98.7415Z" stroke="#265083" stroke-width="0.654352" stroke-miterlimit="10" stroke-linejoin="round"/>
<path d="M1065.51 144.896L1052.36 144.817L1025.71 98.6617L1038.86 98.7415L1065.51 144.896Z" stroke="#265083" stroke-width="0.654352" stroke-miterlimit="10" stroke-linejoin="round"/>
</g>
<g clip-path="url(#clip38_107_4343)">
<path d="M1078.99 93.2494L1091.67 96.73L1100.89 87.3072L1088.21 83.8265L1078.99 93.2494Z" stroke="#265083" stroke-width="0.654352" stroke-miterlimit="10" stroke-linejoin="round"/>
<path d="M1091.67 96.73L1105.46 148.209L1114.7 138.854L1100.89 87.3072L1091.67 96.73Z" stroke="#265083" stroke-width="0.654352" stroke-miterlimit="10" stroke-linejoin="round"/>
<path d="M1105.46 148.209L1092.78 144.728L1078.99 93.2494L1091.67 96.73L1105.46 148.209Z" stroke="#265083" stroke-width="0.654352" stroke-miterlimit="10" stroke-linejoin="round"/>
</g>
<g clip-path="url(#clip39_107_4343)">
<path d="M1118.09 89.3875L1129.44 96.0319L1140.79 89.3175L1129.44 82.6731L1118.09 89.3875Z" stroke="#265083" stroke-width="0.654352" stroke-miterlimit="10" stroke-linejoin="round"/>
<path d="M1129.44 96.0319V149.327L1140.79 142.682V89.3175L1129.44 96.0319Z" stroke="#265083" stroke-width="0.654352" stroke-miterlimit="10" stroke-linejoin="round"/>
<path d="M1129.44 149.327L1118.09 142.682V89.3875L1129.44 96.0319V149.327Z" stroke="#265083" stroke-width="0.654352" stroke-miterlimit="10" stroke-linejoin="round"/>
</g>
<g clip-path="url(#clip40_107_4343)">
<path d="M1157.03 47.4177L1163.67 36.0688L1156.96 24.7198L1150.31 36.0688L1157.03 47.4177Z" stroke="#265083" stroke-width="0.654352" stroke-miterlimit="10" stroke-linejoin="round"/>
<path d="M1163.67 36.0687L1216.97 36.0687L1210.32 24.7198L1156.96 24.7198L1163.67 36.0687Z" stroke="#265083" stroke-width="0.654352" stroke-miterlimit="10" stroke-linejoin="round"/>
<path d="M1216.97 36.0687L1210.32 47.4177L1157.03 47.4177L1163.67 36.0687L1216.97 36.0687Z" stroke="#265083" stroke-width="0.654352" stroke-miterlimit="10" stroke-linejoin="round"/>
</g>
<g clip-path="url(#clip41_107_4343)">
<path d="M1225 40.1408L1234.36 30.8983L1230.81 18.1983L1221.46 27.4408L1225 40.1408Z" stroke="#265083" stroke-width="0.654352" stroke-miterlimit="10" stroke-linejoin="round"/>
<path d="M1234.36 30.8983L1285.84 44.6921L1282.36 32.0102L1230.81 18.1983L1234.36 30.8983Z" stroke="#265083" stroke-width="0.654352" stroke-miterlimit="10" stroke-linejoin="round"/>
<path d="M1285.84 44.6921L1276.48 53.9346L1225 40.1408L1234.36 30.8983L1285.84 44.6921Z" stroke="#265083" stroke-width="0.654352" stroke-miterlimit="10" stroke-linejoin="round"/>
</g>
<g clip-path="url(#clip42_107_4343)">
<path d="M1157.03 127.418L1163.67 116.069L1156.96 104.72L1150.31 116.069L1157.03 127.418Z" stroke="#265083" stroke-width="0.654352" stroke-miterlimit="10" stroke-linejoin="round"/>
<path d="M1163.67 116.069H1216.97L1210.32 104.72H1156.96L1163.67 116.069Z" stroke="#265083" stroke-width="0.654352" stroke-miterlimit="10" stroke-linejoin="round"/>
<path d="M1216.97 116.069L1210.32 127.418H1157.03L1163.67 116.069H1216.97Z" stroke="#265083" stroke-width="0.654352" stroke-miterlimit="10" stroke-linejoin="round"/>
</g>
<g clip-path="url(#clip43_107_4343)">
<path d="M1225 120.141L1234.36 110.898L1230.81 98.1983L1221.46 107.441L1225 120.141Z" stroke="#265083" stroke-width="0.654352" stroke-miterlimit="10" stroke-linejoin="round"/>
<path d="M1234.36 110.898L1285.84 124.692L1282.36 112.01L1230.81 98.1983L1234.36 110.898Z" stroke="#265083" stroke-width="0.654352" stroke-miterlimit="10" stroke-linejoin="round"/>
<path d="M1285.84 124.692L1276.48 133.935L1225 120.141L1234.36 110.898L1285.84 124.692Z" stroke="#265083" stroke-width="0.654352" stroke-miterlimit="10" stroke-linejoin="round"/>
</g>
<defs>
<clipPath id="clip0_107_4343">
<rect width="24.211" height="68.0526" fill="white" transform="matrix(0 -1 1 0 -64 48.1055)"/>
</clipPath>
<clipPath id="clip1_107_4343">
<rect width="24.211" height="68.0526" fill="white" transform="translate(4.05249 38.8864) rotate(-75)"/>
</clipPath>
<clipPath id="clip2_107_4343">
<rect width="24.211" height="68.0526" fill="white" transform="translate(76.0525 29.4705) rotate(-60)"/>
</clipPath>
<clipPath id="clip3_107_4343">
<rect width="24.211" height="68.0526" fill="white" transform="translate(147.093 20.4997) rotate(-45)"/>
</clipPath>
<clipPath id="clip4_107_4343">
<rect width="24.211" height="68.0526" fill="white" transform="translate(212.333 12.5851) rotate(-30)"/>
</clipPath>
<clipPath id="clip5_107_4343">
<rect width="24.211" height="68.0526" fill="white" transform="translate(267.327 6.26627) rotate(-15)"/>
</clipPath>
<clipPath id="clip6_107_4343">
<rect width="24.211" height="68.0526" fill="white" transform="translate(308.327 1.97372)"/>
</clipPath>
<clipPath id="clip7_107_4343">
<rect width="24.211" height="68.0526" fill="white" transform="matrix(0 -1 1 0 -64 128.106)"/>
</clipPath>
<clipPath id="clip8_107_4343">
<rect width="24.211" height="68.0526" fill="white" transform="translate(4.05249 118.886) rotate(-75)"/>
</clipPath>
<clipPath id="clip9_107_4343">
<rect width="24.211" height="68.0526" fill="white" transform="translate(76.0525 109.471) rotate(-60)"/>
</clipPath>
<clipPath id="clip10_107_4343">
<rect width="24.211" height="68.0526" fill="white" transform="translate(147.093 100.5) rotate(-45)"/>
</clipPath>
<clipPath id="clip11_107_4343">
<rect width="24.211" height="68.0526" fill="white" transform="translate(212.333 92.5851) rotate(-30)"/>
</clipPath>
<clipPath id="clip12_107_4343">
<rect width="24.211" height="68.0526" fill="white" transform="translate(267.327 86.2663) rotate(-15)"/>
</clipPath>
<clipPath id="clip13_107_4343">
<rect width="24.211" height="68.0526" fill="white" transform="translate(308.327 81.9737)"/>
</clipPath>
<clipPath id="clip14_107_4343">
<rect width="24.211" height="68.0526" fill="white" transform="matrix(0 -1 1 0 340.538 48.1055)"/>
</clipPath>
<clipPath id="clip15_107_4343">
<rect width="24.211" height="68.0526" fill="white" transform="translate(408.59 38.8864) rotate(-75)"/>
</clipPath>
<clipPath id="clip16_107_4343">
<rect width="24.211" height="68.0526" fill="white" transform="translate(480.59 29.4705) rotate(-60)"/>
</clipPath>
<clipPath id="clip17_107_4343">
<rect width="24.211" height="68.0526" fill="white" transform="translate(551.631 20.4997) rotate(-45)"/>
</clipPath>
<clipPath id="clip18_107_4343">
<rect width="24.211" height="68.0526" fill="white" transform="translate(616.871 12.5851) rotate(-30)"/>
</clipPath>
<clipPath id="clip19_107_4343">
<rect width="24.211" height="68.0526" fill="white" transform="translate(671.865 6.26627) rotate(-15)"/>
</clipPath>
<clipPath id="clip20_107_4343">
<rect width="24.211" height="68.0526" fill="white" transform="matrix(0 -1 1 0 340.538 128.106)"/>
</clipPath>
<clipPath id="clip21_107_4343">
<rect width="24.211" height="68.0526" fill="white" transform="translate(408.59 118.886) rotate(-75)"/>
</clipPath>
<clipPath id="clip22_107_4343">
<rect width="24.211" height="68.0526" fill="white" transform="translate(480.59 109.471) rotate(-60)"/>
</clipPath>
<clipPath id="clip23_107_4343">
<rect width="24.211" height="68.0526" fill="white" transform="translate(551.631 100.5) rotate(-45)"/>
</clipPath>
<clipPath id="clip24_107_4343">
<rect width="24.211" height="68.0526" fill="white" transform="translate(616.871 92.5851) rotate(-30)"/>
</clipPath>
<clipPath id="clip25_107_4343">
<rect width="24.211" height="68.0526" fill="white" transform="translate(671.865 86.2663) rotate(-15)"/>
</clipPath>
<clipPath id="clip26_107_4343">
<rect width="24.211" height="68.0526" fill="white" transform="matrix(0 -1 1 0 745.075 48.1055)"/>
</clipPath>
<clipPath id="clip27_107_4343">
<rect width="24.211" height="68.0526" fill="white" transform="translate(813.128 38.8864) rotate(-75)"/>
</clipPath>
<clipPath id="clip28_107_4343">
<rect width="24.211" height="68.0526" fill="white" transform="translate(885.128 29.4705) rotate(-60)"/>
</clipPath>
<clipPath id="clip29_107_4343">
<rect width="24.211" height="68.0526" fill="white" transform="translate(956.168 20.4997) rotate(-45)"/>
</clipPath>
<clipPath id="clip30_107_4343">
<rect width="24.211" height="68.0526" fill="white" transform="translate(1021.41 12.5851) rotate(-30)"/>
</clipPath>
<clipPath id="clip31_107_4343">
<rect width="24.211" height="68.0526" fill="white" transform="translate(1076.4 6.26627) rotate(-15)"/>
</clipPath>
<clipPath id="clip32_107_4343">
<rect width="24.211" height="68.0526" fill="white" transform="translate(1117.4 1.97372)"/>
</clipPath>
<clipPath id="clip33_107_4343">
<rect width="24.211" height="68.0526" fill="white" transform="matrix(0 -1 1 0 745.075 128.106)"/>
</clipPath>
<clipPath id="clip34_107_4343">
<rect width="24.211" height="68.0526" fill="white" transform="translate(813.128 118.886) rotate(-75)"/>
</clipPath>
<clipPath id="clip35_107_4343">
<rect width="24.211" height="68.0526" fill="white" transform="translate(885.128 109.471) rotate(-60)"/>
</clipPath>
<clipPath id="clip36_107_4343">
<rect width="24.211" height="68.0526" fill="white" transform="translate(956.168 100.5) rotate(-45)"/>
</clipPath>
<clipPath id="clip37_107_4343">
<rect width="24.211" height="68.0526" fill="white" transform="translate(1021.41 92.5851) rotate(-30)"/>
</clipPath>
<clipPath id="clip38_107_4343">
<rect width="24.211" height="68.0526" fill="white" transform="translate(1076.4 86.2663) rotate(-15)"/>
</clipPath>
<clipPath id="clip39_107_4343">
<rect width="24.211" height="68.0526" fill="white" transform="translate(1117.4 81.9737)"/>
</clipPath>
<clipPath id="clip40_107_4343">
<rect width="24.211" height="68.0526" fill="white" transform="matrix(0 -1 1 0 1149.61 48.1055)"/>
</clipPath>
<clipPath id="clip41_107_4343">
<rect width="24.211" height="68.0526" fill="white" transform="translate(1217.67 38.8864) rotate(-75)"/>
</clipPath>
<clipPath id="clip42_107_4343">
<rect width="24.211" height="68.0526" fill="white" transform="matrix(0 -1 1 0 1149.61 128.106)"/>
</clipPath>
<clipPath id="clip43_107_4343">
<rect width="24.211" height="68.0526" fill="white" transform="translate(1217.67 118.886) rotate(-75)"/>
</clipPath>
</defs>
</svg>
