<svg width="122" height="125" viewBox="0 0 122 125" fill="none" xmlns="http://www.w3.org/2000/svg">
<path d="M48.6656 62.1483L79.784 44.2917C81.1183 43.5227 82.7538 43.5227 84.0881 44.2917L115.207 62.1483C116.541 62.9172 117.359 64.327 117.359 65.8649V101.535C117.359 103.073 116.541 104.483 115.207 105.252L84.0881 123.066C82.7538 123.835 81.1183 123.835 79.784 123.066L48.6656 105.209C47.3314 104.44 46.5136 103.031 46.5136 101.493V65.8221C46.5136 64.327 47.3314 62.9172 48.6656 62.1483Z" stroke="#FF7527" stroke-width="1.24887" stroke-miterlimit="10" stroke-linejoin="round"/>
<path d="M3.70629 19.4333L34.8247 1.57671C36.159 0.807764 37.7945 0.807764 39.1288 1.57671L70.2472 19.4333C71.5815 20.2023 72.3992 21.612 72.3992 23.1499V58.8205C72.3992 60.3583 71.5815 61.7681 70.2472 62.537L39.1288 80.3509C37.7945 81.1199 36.159 81.1199 34.8247 80.3509L3.70629 62.4943C2.37203 61.7254 1.55426 60.3156 1.55426 58.7777V23.1072C1.55426 21.612 2.37203 20.2023 3.70629 19.4333Z" stroke="#FF7527" stroke-width="1.24887" stroke-miterlimit="10" stroke-linejoin="round"/>
<path d="M13.1164 30.7942L40.8201 14.7376L46.4079 17.9354L18.637 33.9921L13.1164 30.7942Z" stroke="#FF7527" stroke-width="1.04389" stroke-miterlimit="10" stroke-linejoin="round"/>
<path d="M13.1164 30.7942L13.0828 37.1563L18.637 40.4215V33.9921L13.1164 30.7942Z" stroke="#FF7527" stroke-width="1.04389" stroke-miterlimit="10" stroke-linejoin="round"/>
<path d="M18.637 40.4215L24.1912 37.2236L29.7454 33.9921V59.6423L35.2996 56.4445V30.7942L46.4079 24.3648V17.9354L18.637 33.9921" stroke="#FF7527" stroke-width="1.04389" stroke-miterlimit="10" stroke-linejoin="round"/>
<path d="M24.1911 56.4445L29.7453 59.6423V33.9921L24.1911 37.2236V56.4445Z" stroke="#FF7527" stroke-width="1.04389" stroke-miterlimit="10" stroke-linejoin="round"/>
<path d="M35.2995 30.7942L40.8537 33.9921L46.4079 30.7942L40.8537 27.5627L35.2995 30.7942Z" stroke="#FF7527" stroke-width="1.04389" stroke-miterlimit="10" stroke-linejoin="round"/>
<path d="M40.8538 33.9921V59.6423L57.5163 50.0151V43.6193L46.408 50.0487V30.7942L40.8538 33.9921Z" stroke="#FF7527" stroke-width="1.04389" stroke-miterlimit="10" stroke-linejoin="round"/>
<path d="M40.8537 59.6423L35.2995 56.4445V30.7942L40.8537 33.9921V59.6423Z" stroke="#FF7527" stroke-width="1.04389" stroke-miterlimit="10" stroke-linejoin="round"/>
<path d="M57.5163 43.6193L51.9621 40.4215L46.4079 43.6193V50.0487L57.5163 43.6193Z" stroke="#FF7527" stroke-width="1.04389" stroke-miterlimit="10" stroke-linejoin="round"/>
<circle cx="81.0543" cy="74.5" r="6.5" stroke="#FF7527" stroke-width="1.5" stroke-miterlimit="10" stroke-linejoin="round"/>
<path d="M67.5543 90.5C67.5543 84.701 73.5984 84 81.0543 84C88.5101 84 94.5543 84.701 94.5543 90.5C94.5543 96.299 88.5101 101 81.0543 101C73.5984 101 67.5543 96.299 67.5543 90.5Z" stroke="#FF7527" stroke-width="1.5" stroke-miterlimit="10" stroke-linejoin="round"/>
</svg>
